# Blender v2.79 (sub 0) OBJ File: 'untitled.blend'
# www.blender.org
mtllib minute.mtl
o Icosphere
v 0.015140 -0.349402 0.119996
v -0.002570 -0.339781 0.147962
v -0.019254 -0.351701 0.120253
v -0.004848 -0.323265 0.117873
v 0.024030 -0.320778 0.137024
v -0.031621 -0.324498 0.137439
v -0.004870 -0.305386 0.147804
v -0.001731 -0.355437 0.120147
v 0.008076 -0.348430 0.136434
v -0.012140 -0.349782 0.136585
v 0.013302 -0.331606 0.146443
v 0.025353 -0.335785 0.119869
v 0.028792 -0.320539 0.119752
v -0.003685 -0.322559 0.152779
v 0.011949 -0.311389 0.146350
v -0.031061 -0.342012 0.119455
v -0.019409 -0.333792 0.146687
v 0.023922 -0.304501 0.119417
v -0.022475 -0.309809 0.145776
v -0.036629 -0.324912 0.120240
v 0.004536 -0.295503 0.136190
v -0.031624 -0.304314 0.118374
v -0.015680 -0.296854 0.136341
v -0.005015 1.742117 0.130844
v -0.003787 1.266832 0.136385
v -0.002817 1.267288 0.134676
v -0.002555 1.267782 0.132668
v -0.003084 1.268266 0.130672
v -0.004449 1.268523 0.129046
v -0.006368 1.268672 0.128080
v -0.008520 1.268628 0.127990
v -0.010502 1.268397 0.128785
v -0.011964 1.268012 0.130285
v -0.012693 1.267531 0.132189
v -0.012637 1.267029 0.134161
v -0.011861 1.266755 0.136094
v -0.010666 1.266556 0.137329
v -0.008912 1.266285 0.138063
v -0.007057 1.266288 0.138158
v -0.005274 1.266480 0.137585
v 0.003805 -0.292358 0.134580
v 0.050740 1.305451 0.136725
v 0.007444 -0.292319 0.129779
v 0.004427 -0.292275 0.120892
v -0.004408 -0.292258 0.119953
v -0.013736 -0.292190 0.119691
v -0.018063 -0.292137 0.128505
v -0.014334 -0.292247 0.133456
v -0.005258 -0.292290 0.135899
v 0.044126 1.306267 0.158363
v 0.048242 1.304824 0.112816
v 0.041796 1.304433 0.098411
v 0.030956 1.303972 0.086893
v 0.009846 1.303459 0.075414
v -0.012739 1.303497 0.073194
v -0.034445 1.303846 0.079798
v -0.051948 1.304454 0.094205
v -0.062586 1.305230 0.114199
v -0.064753 1.306057 0.136722
v -0.057541 1.306981 0.159614
v -0.048388 1.307443 0.172370
v -0.035596 1.307630 0.181465
v -0.012700 1.307610 0.188621
v 0.009789 1.307437 0.186430
v 0.029742 1.306965 0.175812
vt 0.000000 0.000000
vt 0.000000 0.000000
vt 0.000000 0.000000
vt 0.000000 0.000000
vt 0.000000 0.000000
vt 0.000000 0.000000
vt 0.000000 0.000000
vt 0.000000 0.000000
vt 0.000000 0.000000
vt 0.000000 0.000000
vt 0.000000 0.000000
vt 0.000000 0.000000
vt 0.000000 0.000000
vt 0.000000 0.000000
vt 0.000000 0.000000
vt 0.000000 0.000000
vt 0.000000 0.000000
vt 0.000000 0.000000
vt 0.000000 0.000000
vt 0.000000 0.000000
vt 0.000000 0.000000
vt 0.000000 0.000000
vt 0.000000 0.000000
vt 0.000000 0.000000
vt 0.000000 0.000000
vt 0.000000 0.000000
vt 0.000000 0.000000
vt 0.000000 0.000000
vt 0.000000 0.000000
vt 0.000000 0.000000
vt 0.000000 0.000000
vt 0.000000 0.000000
vt 0.000000 0.000000
vt 0.000000 0.000000
vt 0.000000 0.000000
vt 0.000000 0.000000
vt 0.000000 0.000000
vt 0.000000 0.000000
vt 0.000000 0.000000
vt 0.000000 0.000000
vt 0.000000 0.000000
vt 0.000000 0.000000
vt 0.000000 0.000000
vt 0.000000 0.000000
vt 0.000000 0.000000
vt 0.000000 0.000000
vt 0.000000 0.000000
vt 0.000000 0.000000
vt 0.000000 0.000000
vt 0.000000 0.000000
vt 0.000000 0.000000
vt 0.000000 0.000000
vt 0.000000 0.000000
vt 0.000000 0.000000
vt 0.000000 0.000000
vt 0.000000 0.000000
vt 0.000000 0.000000
vt 0.000000 0.000000
vt 0.000000 0.000000
vt 0.000000 0.000000
vt 0.000000 0.000000
vt 0.000000 0.000000
vt 0.000000 0.000000
vn 0.3318 -0.9225 0.1971
vn 0.3586 -0.5570 0.7491
vn 0.0158 -0.0690 -0.9975
vn 0.0473 -0.0449 -0.9979
vn 0.2189 -0.2496 0.9433
vn -0.6085 -0.7128 0.3488
vn 0.9228 0.2856 0.2584
vn -0.1697 -0.2756 0.9462
vn -0.0008 -0.0830 -0.9965
vn -0.0703 -0.0730 -0.9949
vn -0.9312 0.2503 0.2651
vn -0.0753 0.0212 -0.9969
vn -0.9111 -0.3092 0.2727
vn -0.6272 -0.0506 0.7772
vn -0.3551 -0.0099 0.9348
vn 0.0561 -0.0038 -0.9984
vn -0.7316 -0.4997 0.4638
vn -0.6608 -0.5919 0.4614
vn -0.2701 -0.5990 0.7538
vn 0.3627 0.0285 0.9315
vn 0.6325 0.0459 0.7732
vn 0.9431 -0.2108 0.2571
vn 0.0574 -0.0206 -0.9981
vn -0.0215 -0.0726 -0.9971
vn 0.8000 -0.4196 0.4288
vn 0.7632 -0.4886 0.4229
vn 0.7495 -0.5588 0.3550
vn -0.2031 -0.9583 0.2011
vn 0.0649 -0.9303 0.3611
vn 0.0564 -0.7729 0.6320
vn -0.0041 -1.0000 -0.0022
vn 0.4714 -0.8202 -0.3241
vn 0.3419 -0.8407 -0.4198
vn 0.1865 -0.8452 -0.5009
vn 0.0397 -0.8416 -0.5386
vn -0.1207 -0.8313 -0.5426
vn -0.2952 -0.8160 -0.4971
vn -0.4664 -0.7987 -0.3803
vn -0.5951 -0.7827 -0.1823
vn -0.6143 -0.7772 0.1363
vn -0.5071 -0.7808 0.3651
vn -0.3416 -0.7764 0.5296
vn -0.0313 -0.7750 0.6311
vn 0.2671 -0.7774 0.5695
vn 0.4913 -0.7837 0.3799
vn 0.5953 -0.7935 0.1261
vn 0.5790 -0.8060 -0.1229
vn 0.7969 0.0033 0.6041
vn 0.9914 0.0061 0.1308
vn 0.5632 -0.8012 0.2024
vn 0.9501 0.1252 0.2857
vn 0.8693 0.0037 0.4944
vn 0.4598 -0.7874 0.4105
vn 0.7679 0.1262 0.6280
vn 0.1440 -0.0011 0.9896
vn 0.6273 0.0022 0.7787
vn 0.2818 -0.7762 0.5640
vn 0.4683 0.1277 0.8743
vn 0.3063 -0.0010 0.9519
vn 0.0561 -0.7694 0.6363
vn 0.0971 0.1295 0.9868
vn -0.2599 -0.0020 0.9656
vn -0.0514 -0.0015 0.9987
vn -0.1921 -0.7669 0.6124
vn -0.2956 0.1311 0.9463
vn -0.3863 -0.0014 0.9224
vn -0.3581 -0.7757 0.5196
vn -0.5755 0.1345 0.8066
vn -0.4924 -0.7823 0.3816
vn -0.8073 0.1354 0.5744
vn -0.7987 0.0002 0.6017
vn -0.7186 -0.0000 0.6954
vn -0.5788 -0.7869 0.2141
vn -0.9468 0.1336 0.2929
vn -0.9280 0.0019 0.3727
vn -0.5962 -0.8024 -0.0279
vn -0.9860 0.1337 -0.0998
vn -0.8976 0.0041 -0.4407
vn -0.9996 0.0034 0.0295
vn -0.5222 -0.8166 -0.2461
vn -0.8729 0.1329 -0.4695
vn -0.9341 0.0035 -0.3571
vn -0.3725 -0.8287 -0.4176
vn -0.6272 0.1315 -0.7676
vn 0.0281 0.0058 -0.9996
vn -0.7168 0.0055 -0.6973
vn -0.1715 -0.8371 -0.5195
vn -0.2867 0.1298 -0.9492
vn -0.3727 0.0038 -0.9279
vn 0.0516 -0.8405 -0.5393
vn 0.0972 0.1280 -0.9870
vn 0.1057 0.0053 -0.9944
vn 0.0415 0.0053 -0.9991
vn 0.2768 -0.8372 -0.4716
vn 0.4715 0.1263 -0.8728
vn 0.4503 0.0072 -0.8928
vn 0.4161 -0.8358 -0.3581
vn 0.7197 0.1275 -0.6825
vn 0.9469 0.0066 -0.3215
vn 0.7664 0.0077 -0.6423
vn 0.5180 -0.8294 -0.2093
vn 0.9041 0.1269 -0.4080
vn 0.9669 0.0067 -0.2550
vn 0.5787 -0.8146 -0.0391
vn 0.9865 0.1245 -0.1063
vn -0.8701 0.3384 0.3584
vn -0.5278 0.8073 -0.2640
vn -0.7429 0.3551 0.5675
vn 0.0284 0.0665 -0.9974
vn 0.0285 0.0665 -0.9974
vn -0.0122 0.1006 -0.9949
vn 0.5142 0.8405 -0.1704
vn 0.6962 0.5292 0.4850
vn 0.7361 0.5346 0.4152
vn -0.1753 0.2628 0.9488
vn -0.2432 0.6301 0.7374
vn -0.1931 0.6568 0.7289
vn 0.1118 0.6702 0.7337
vn 0.1831 0.2852 0.9408
vn 0.2756 0.5882 0.7603
vn 0.6458 0.5820 0.4942
vn 0.0028 -1.0000 -0.0059
vn -0.0079 -1.0000 -0.0024
vn -0.0229 -0.9997 -0.0051
vn -0.0072 -1.0000 -0.0045
vn -0.0013 -1.0000 -0.0061
vn -0.7243 0.5881 0.3598
vn 0.1056 0.0651 -0.9923
usemtl Material.005
s off
f 1/1/1 9/2/1 8/3/1
f 2/4/2 9/2/2 11/5/2
f 1/1/3 8/3/3 4/6/3
f 1/1/4 4/6/4 12/7/4
f 2/4/5 11/5/5 14/8/5
f 3/9/6 10/10/6 16/11/6
f 5/12/7 13/13/7 18/14/7
f 2/4/8 14/8/8 17/15/8
f 3/9/9 16/11/9 4/6/9
f 4/6/10 20/16/10 22/17/10
f 20/16/11 6/18/11 22/17/11
f 4/6/12 16/11/12 20/16/12
f 16/11/13 6/18/13 20/16/13
f 17/15/14 19/19/14 6/18/14
f 17/15/15 14/8/15 19/19/15
f 18/14/16 13/13/16 4/6/16
f 16/11/17 17/15/17 6/18/17
f 16/11/18 10/10/18 17/15/18
f 10/10/19 2/4/19 17/15/19
f 14/8/20 11/5/20 15/20/20
f 11/5/21 5/12/21 15/20/21
f 12/7/22 13/13/22 5/12/22
f 12/7/23 4/6/23 13/13/23
f 8/3/24 3/9/24 4/6/24
f 11/5/25 12/7/25 5/12/25
f 11/5/26 9/2/26 12/7/26
f 9/2/27 1/1/27 12/7/27
f 8/3/28 10/10/28 3/9/28
f 8/3/29 9/2/29 10/10/29
f 9/2/30 2/4/30 10/10/30
f 48/21/31 45/22/31 49/23/31
f 28/24/32 51/25/32 27/26/32
f 29/27/33 53/28/33 28/24/33
f 30/29/34 54/30/34 29/27/34
f 31/31/35 55/32/35 30/29/35
f 32/33/36 56/34/36 31/31/36
f 33/35/37 57/36/37 32/33/37
f 34/37/38 58/38/38 33/35/38
f 35/39/39 59/40/39 34/37/39
f 36/41/40 60/42/40 35/39/40
f 37/43/41 61/44/41 36/41/41
f 38/45/42 62/46/42 37/43/42
f 39/47/43 63/48/43 38/45/43
f 40/49/44 64/50/44 39/47/44
f 25/51/45 65/52/45 40/49/45
f 26/53/46 50/54/46 25/51/46
f 27/26/47 42/55/47 26/53/47
f 41/56/48 43/57/48 26/53/48
f 43/57/49 27/26/49 26/53/49
f 26/53/50 42/55/50 50/54/50
f 42/55/51 24/58/51 50/54/51
f 41/56/52 26/53/52 25/51/52
f 25/51/53 50/54/53 65/52/53
f 50/54/54 24/58/54 65/52/54
f 49/23/55 41/56/55 40/49/55
f 41/56/56 25/51/56 40/49/56
f 40/49/57 65/52/57 64/50/57
f 65/52/58 24/58/58 64/50/58
f 49/23/59 40/49/59 39/47/59
f 39/47/60 64/50/60 63/48/60
f 64/50/61 24/58/61 63/48/61
f 48/21/62 49/23/62 38/45/62
f 49/23/63 39/47/63 38/45/63
f 38/45/64 63/48/64 62/46/64
f 63/48/65 24/58/65 62/46/65
f 48/21/66 38/45/66 37/43/66
f 37/43/67 62/46/67 61/44/67
f 62/46/68 24/58/68 61/44/68
f 36/41/69 61/44/69 60/42/69
f 61/44/70 24/58/70 60/42/70
f 47/59/71 48/21/71 36/41/71
f 48/21/72 37/43/72 36/41/72
f 35/39/73 60/42/73 59/40/73
f 60/42/74 24/58/74 59/40/74
f 47/59/75 36/41/75 35/39/75
f 34/37/76 59/40/76 58/38/76
f 59/40/77 24/58/77 58/38/77
f 46/60/78 47/59/78 34/37/78
f 47/59/79 35/39/79 34/37/79
f 33/35/80 58/38/80 57/36/80
f 58/38/81 24/58/81 57/36/81
f 46/60/82 34/37/82 33/35/82
f 32/33/83 57/36/83 56/34/83
f 57/36/84 24/58/84 56/34/84
f 45/22/85 46/60/85 32/33/85
f 46/60/86 33/35/86 32/33/86
f 31/31/87 56/34/87 55/32/87
f 56/34/88 24/58/88 55/32/88
f 45/22/89 32/33/89 31/31/89
f 30/29/90 55/32/90 54/30/90
f 55/32/91 24/58/91 54/30/91
f 44/61/92 45/22/92 30/29/92
f 45/22/93 31/31/93 30/29/93
f 29/27/94 54/30/94 53/28/94
f 54/30/95 24/58/95 53/28/95
f 44/61/96 30/29/96 29/27/96
f 28/24/97 53/28/97 52/62/97
f 53/28/98 24/58/98 52/62/98
f 43/57/99 44/61/99 28/24/99
f 44/61/100 29/27/100 28/24/100
f 28/24/101 52/62/101 51/25/101
f 52/62/102 24/58/102 51/25/102
f 43/57/103 28/24/103 27/26/103
f 27/26/104 51/25/104 42/55/104
f 51/25/105 24/58/105 42/55/105
f 19/19/106 22/17/106 6/18/106
f 22/17/107 47/59/107 46/60/107
f 47/59/108 22/17/108 48/21/108
f 22/17/109 46/60/109 4/6/109
f 45/22/110 4/6/110 46/60/110
f 4/6/111 44/61/111 18/14/111
f 43/57/112 18/14/112 44/61/112
f 18/14/113 43/57/113 5/12/113
f 15/20/114 5/12/114 43/57/114
f 14/8/115 7/63/115 19/19/115
f 19/19/116 7/63/116 48/21/116
f 7/63/117 49/23/117 48/21/117
f 49/23/118 7/63/118 41/56/118
f 14/8/119 15/20/119 7/63/119
f 7/63/120 15/20/120 41/56/120
f 41/56/121 15/20/121 43/57/121
f 44/61/122 43/57/122 41/56/122
f 41/56/123 49/23/123 45/22/123
f 48/21/124 47/59/124 46/60/124
f 46/60/125 45/22/125 48/21/125
f 44/61/126 41/56/126 45/22/126
f 19/19/127 48/21/127 22/17/127
f 45/22/128 44/61/128 4/6/128
