# Blender v2.79 (sub 0) OBJ File: 'untitled.blend'
# www.blender.org
mtllib second.mtl
o SecondArrow_Cylinder
v 0.039409 -0.005609 0.041821
v 0.022567 1.839043 0.045542
v 0.020311 -0.005609 0.077553
v 0.016164 1.839043 0.057522
v -0.023032 -0.005609 0.080387
v 0.002646 1.839043 0.058853
v -0.044874 -0.005609 0.041821
v -0.005690 1.839043 0.045542
v -0.020010 -0.005609 0.002119
v 0.002646 1.839043 0.032231
v 0.020311 -0.005609 0.006090
v 0.016164 1.839043 0.033562
vt 0.000000 0.000000
vt 0.000000 0.000000
vt 0.000000 0.000000
vt 0.000000 0.000000
vt 0.000000 0.000000
vt 0.000000 0.000000
vt 0.000000 0.000000
vt 0.000000 0.000000
vt 0.000000 0.000000
vt 0.000000 0.000000
vt 0.000000 0.000000
vt 1.008650 0.070607
vt 1.001946 0.075029
vt 1.003499 0.068961
vt 0.000000 0.000000
vt 0.997559 0.070065
vt 1.008310 0.073540
vt 0.996403 0.072938
vn 0.8819 0.0071 0.4714
vn 0.0653 0.0107 0.9978
vn -0.8700 0.0175 0.4927
vn -0.8474 0.0191 -0.5307
vn 0.0980 0.0150 -0.9951
vn 0.8819 0.0090 -0.4714
vn 0.0000 -1.0000 0.0000
vn 0.0000 1.0000 0.0000
vn 0.0980 0.0110 0.9951
vn -0.8474 0.0180 0.5307
usemtl Material.005
s off
f 1/1/1 4/2/1 3/3/1
f 3/3/2 6/4/2 5/5/2
f 5/5/3 8/6/3 7/7/3
f 8/6/4 9/8/4 7/7/4
f 10/9/5 11/10/5 9/8/5
f 12/11/6 1/1/6 11/10/6
f 3/3/7 7/7/7 1/1/7
f 12/12/8 8/13/8 2/14/8
f 1/1/1 2/15/1 4/2/1
f 3/3/9 4/2/9 6/4/9
f 5/5/10 6/4/10 8/6/10
f 8/6/4 10/9/4 9/8/4
f 10/9/5 12/11/5 11/10/5
f 12/11/6 2/15/6 1/1/6
f 11/10/7 1/1/7 7/7/7
f 3/3/7 5/5/7 7/7/7
f 7/7/7 9/8/7 11/10/7
f 4/16/8 2/14/8 8/13/8
f 12/12/8 10/17/8 8/13/8
f 8/13/8 6/18/8 4/16/8
